<?xml version="1.0" standalone="no"?>
<!DOCTYPE svg PUBLIC "-//W3C//DTD SVG 20010904//EN"
 "http://www.w3.org/TR/2001/REC-SVG-20010904/DTD/svg10.dtd">
<svg version="1.0" xmlns="http://www.w3.org/2000/svg"
 width="1519.000000pt" height="477.000000pt" viewBox="0 0 1519.000000 477.000000"
 preserveAspectRatio="xMidYMid meet">

<g transform="translate(0.000000,477.000000) scale(0.100000,-0.100000)"
fill="#000000" stroke="none">
<path d="M5480 4402 l-1135 -365 -2025 57 c-1114 32 -2091 60 -2172 63 l-148
6 0 -1651 0 -1652 190 0 190 0 0 -115 0 -115 58 0 c31 0 974 29 2095 66 1122
36 2041 63 2044 60 3 -2 24 -147 46 -320 24 -181 46 -316 52 -316 5 0 80 33
165 74 85 41 157 73 160 71 4 -2 12 -55 20 -117 7 -62 16 -120 19 -129 5 -13
146 63 730 393 l723 410 4294 -72 c2362 -40 4297 -70 4300 -67 8 7 105 2759
98 2767 -3 3 -48 7 -100 8 l-94 4 0 253 0 252 -137 7 c-76 3 -1472 40 -3103
82 -2426 63 -2967 79 -2976 90 -6 8 -39 92 -74 186 -35 95 -64 174 -65 176 -1
1 -426 -41 -945 -93 -518 -53 -943 -95 -944 -93 -2 2 -24 89 -51 193 -63 250
-65 255 -73 254 -4 -1 -518 -166 -1142 -367z m1098 -35 c28 -110 53 -201 56
-204 3 -4 416 36 918 86 502 51 928 94 947 94 l35 2 66 -175 66 -175 64 -7
c36 -4 1425 -43 3088 -85 l3022 -78 0 -1372 0 -1373 -77 0 c-43 0 -1979 -11
-4302 -26 l-4225 -27 -719 -344 c-396 -188 -722 -341 -725 -339 -3 4 -48 329
-92 664 0 1 -1024 2 -2275 2 l-2275 0 0 1498 0 1499 103 -4 c269 -10 3944
-113 4027 -113 l95 0 1070 344 c589 188 1073 340 1077 337 3 -3 29 -95 56
-204z"/>
<path d="M6135 3665 c-88 -24 -168 -49 -177 -55 -10 -5 -27 -10 -37 -10 -28 0
-321 -80 -352 -96 -31 -15 -79 -70 -79 -88 0 -11 -12 -10 -62 1 -135 32 -360
-4 -526 -84 -106 -51 -210 -153 -242 -238 -32 -85 -38 -213 -15 -307 20 -84
56 -166 91 -208 20 -23 23 -33 15 -49 -29 -53 19 -346 70 -431 28 -45 99 -75
149 -62 l38 9 42 -161 c59 -229 64 -241 140 -317 49 -50 80 -71 125 -88 181
-69 310 -54 811 89 328 95 446 146 545 238 32 29 70 73 86 98 15 24 31 44 34
44 3 0 9 -21 12 -47 16 -136 105 -257 222 -304 93 -36 204 -30 893 49 649 74
627 70 675 135 15 19 21 45 23 99 2 86 -22 332 -36 358 -13 25 -13 30 3 30 18
0 64 49 76 83 6 16 11 52 11 80 -1 94 -27 292 -43 324 -18 34 -62 73 -83 73
-8 0 -16 10 -18 23 -6 29 -24 183 -31 272 -3 39 -10 104 -15 145 -5 41 -14
127 -20 190 -6 63 -16 129 -21 146 -13 41 -59 84 -102 94 -23 5 -143 -4 -349
-26 -172 -19 -519 -56 -770 -83 -511 -54 -506 -53 -546 -132 l-23 -47 35 -344
c19 -189 40 -357 46 -373 12 -30 7 -55 -10 -55 -5 0 -10 6 -10 13 0 7 -58 230
-128 495 -138 515 -139 518 -209 548 -45 20 -59 18 -238 -31z m204 -107 c28
-76 242 -901 235 -908 -15 -14 -316 -92 -324 -83 -15 16 -250 917 -242 925 9
9 275 85 305 87 10 0 21 -9 26 -21z m1982 -9 c4 -15 10 -68 14 -118 6 -72 4
-92 -6 -95 -11 -4 -1149 -126 -1173 -126 -3 0 -6 -9 -6 -20 0 -11 6 -20 13
-20 6 0 272 27 591 61 375 39 582 57 588 51 12 -12 34 -219 25 -229 -4 -4
-271 -34 -592 -68 -322 -34 -588 -64 -590 -67 -3 -3 -2 -13 1 -23 5 -13 15
-16 43 -12 120 18 1142 119 1147 114 9 -9 29 -225 21 -233 -9 -10 -1200 -135
-1297 -136 -135 -2 -213 44 -245 142 -19 59 -79 630 -67 642 9 9 1456 167
1501 165 18 -2 27 -10 32 -28z m-2251 -540 c67 -253 120 -462 117 -465 -6 -7
-294 -84 -313 -84 -19 0 -22 8 -89 260 -31 118 -58 216 -59 217 -1 1 -22 -4
-46 -11 -32 -10 -46 -19 -51 -37 -16 -61 -73 -130 -140 -172 -95 -58 -288
-110 -414 -111 -79 0 -97 3 -147 27 -66 32 -101 70 -137 147 -22 47 -26 69
-26 150 0 110 15 149 79 212 109 105 376 185 528 158 76 -14 122 -37 169 -85
36 -35 38 -36 76 -26 l40 11 -24 87 c-12 49 -22 92 -20 97 4 11 307 95 323 89
6 -2 66 -211 134 -464z m-310 -294 c0 -2 14 -55 30 -117 17 -61 29 -117 26
-123 -2 -7 -61 -27 -129 -45 -69 -18 -131 -36 -138 -41 -10 -6 -10 -19 3 -65
9 -32 14 -62 12 -66 -3 -4 -24 -13 -47 -19 -23 -6 -37 -14 -30 -16 13 -5 773
196 787 208 4 4 3 24 -4 44 -7 20 -8 41 -4 45 15 15 316 92 325 83 18 -18 103
-359 102 -414 0 -141 -117 -248 -363 -332 -211 -72 -634 -173 -765 -183 -149
-11 -264 30 -320 114 -21 32 -125 380 -125 419 0 7 21 18 46 24 42 11 45 14
39 38 -4 14 -7 27 -8 28 -1 1 -60 -14 -131 -33 -71 -20 -132 -32 -136 -27 -17
17 -70 237 -60 247 11 11 834 234 868 235 12 1 22 -1 22 -4z m2754 -13 c3 -5
11 -62 17 -126 9 -90 9 -120 0 -125 -6 -4 -160 -23 -342 -42 -182 -18 -334
-36 -339 -39 -5 -3 -4 -40 1 -84 6 -50 6 -83 0 -89 -11 -11 -259 -39 -305 -35
l-31 3 -10 85 -10 85 -35 -3 c-19 -2 -160 -17 -314 -33 -299 -31 -342 -34
-350 -21 -9 14 -30 242 -23 248 7 7 1623 181 1694 183 23 1 44 -3 47 -7z
m-1269 -434 c3 -7 9 -44 14 -81 5 -38 15 -75 22 -83 17 -21 56 -19 630 42 292
31 536 54 543 51 14 -6 42 -245 29 -257 -15 -14 -1292 -143 -1344 -136 -96 13
-162 61 -193 141 -21 52 -47 276 -35 290 6 6 74 17 152 26 183 21 177 21 182
7z"/>
<path d="M5155 3016 c-45 -19 -58 -40 -51 -80 9 -48 27 -60 82 -52 68 9 104
34 104 71 0 48 -25 75 -68 75 -20 -1 -51 -7 -67 -14z"/>
<path d="M5945 2089 c-441 -119 -400 -106 -386 -123 32 -39 138 -26 436 54
196 53 284 86 322 122 25 23 30 48 11 47 -7 0 -179 -45 -383 -100z"/>
<path d="M9188 3455 c-22 -15 -43 -41 -54 -70 l-19 -45 -124 0 c-108 0 -128
-3 -162 -22 -65 -36 -79 -79 -79 -239 0 -153 8 -190 49 -233 28 -29 29 -34 20
-71 -13 -53 -24 -396 -14 -471 6 -52 12 -64 51 -103 l44 -43 -17 -57 c-26 -88
-23 -276 6 -370 48 -157 155 -254 328 -298 59 -15 122 -18 468 -18 348 0 409
2 468 17 172 45 279 141 326 293 33 104 31 307 -3 408 -21 61 -22 74 -11 87
22 25 34 98 35 208 l0 102 25 0 25 0 0 -115 c0 -123 10 -165 49 -199 19 -18
21 -29 21 -145 0 -112 3 -132 23 -171 13 -26 36 -53 57 -65 34 -19 54 -20 497
-23 l462 -3 3 -139 c3 -151 9 -167 72 -214 25 -19 44 -21 194 -24 101 -2 181
1 203 7 45 14 96 64 104 103 7 28 8 29 21 10 7 -11 29 -27 48 -36 31 -14 118
-16 869 -16 l834 0 33 23 c72 48 75 58 78 265 4 220 -3 251 -63 296 l-40 31 3
315 c4 416 -11 512 -101 652 -146 228 -418 338 -802 325 -230 -8 -370 -46
-517 -143 -68 -45 -162 -139 -181 -182 -8 -18 -16 -22 -31 -16 -12 3 -48 9
-81 13 l-60 6 -5 107 c-5 115 -15 138 -74 182 -25 19 -41 21 -199 21 -95 0
-188 -1 -207 -2 -19 -1 -267 1 -550 3 -283 3 -539 2 -568 -1 -65 -8 -114 -47
-136 -108 -11 -31 -15 -36 -15 -18 -1 35 -38 89 -74 108 -24 13 -66 18 -164
21 -167 5 -232 -3 -278 -34 -33 -22 -46 -24 -149 -24 l-114 0 -23 47 c-13 27
-39 58 -58 70 -32 22 -44 23 -220 23 -181 0 -187 -1 -223 -25z m384 -172 l3
-68 185 -5 185 -5 3 -114 c2 -75 -1 -118 -9 -127 -8 -10 -34 -14 -82 -14 l-70
0 20 -22 c63 -69 83 -165 83 -395 l0 -183 -160 0 -160 0 0 245 c0 267 -4 293
-55 333 -22 18 -41 22 -97 22 -83 0 -119 -16 -142 -64 -13 -29 -16 -73 -16
-285 l0 -251 -162 2 -163 3 0 180 c1 203 16 291 65 369 l29 45 -72 3 -72 3 -3
128 -3 127 186 0 185 0 0 70 0 70 160 0 159 0 3 -67z m3818 -20 c242 -42 408
-173 476 -373 17 -49 19 -89 19 -355 l0 -300 -160 0 -160 0 -5 285 c-6 315 -7
323 -73 397 -73 80 -197 119 -354 111 -207 -11 -322 -95 -353 -257 -5 -30 -10
-163 -10 -297 l0 -244 -160 0 -160 0 0 293 c0 231 3 305 15 352 82 312 459
470 925 388z m-3026 -9 c3 -9 6 -81 6 -160 l0 -144 110 0 110 0 0 -125 0 -125
-110 0 -110 0 -2 -172 -3 -173 -162 -3 -163 -2 0 453 c0 250 3 457 7 460 3 4
75 7 159 7 129 0 153 -2 158 -16z m1326 -114 l0 -130 -75 0 -74 0 31 -50 c51
-82 68 -178 68 -382 l0 -178 -159 0 -160 0 -3 258 c-3 287 -8 307 -70 333 -47
20 -148 18 -181 -4 -60 -39 -62 -48 -65 -329 l-4 -258 -156 2 -157 3 -3 154
c-4 217 21 343 84 429 l16 22 -76 0 -76 0 0 123 c0 68 3 127 7 130 3 4 242 7
530 7 l523 0 0 -130z m420 -30 l5 -155 110 -5 110 -5 0 -120 0 -120 -110 -5
-110 -5 -3 -172 -2 -173 -160 0 -160 0 0 453 c0 250 3 457 7 461 4 3 75 5 157
4 l151 -3 5 -155z m-2670 -495 l0 -185 -25 0 -25 0 0 185 0 185 25 0 25 0 0
-185z m3887 155 c57 -24 77 -42 92 -82 l10 -27 -36 25 c-35 23 -41 24 -223 24
-183 0 -188 -1 -224 -25 -39 -26 -44 -20 -21 24 15 31 84 69 145 82 66 15 201
4 257 -21z m-2139 -168 l2 -173 -27 3 -28 3 -3 160 c-1 87 0 165 3 173 3 7 15
12 27 10 23 -3 23 -5 26 -176z m2126 -18 c14 -5 16 -41 16 -300 l0 -294 328
-2 327 -3 0 -125 0 -125 -817 -3 -818 -2 0 130 0 130 330 0 330 0 0 294 c0
226 3 296 13 299 18 8 272 8 291 1z m-994 -296 l0 -173 -39 -32 -38 -32 -8 62
c-4 34 -6 69 -5 77 1 8 4 72 6 143 l5 127 40 0 39 0 0 -172z m-2146 -17 c128
-51 197 -155 199 -296 1 -169 -87 -279 -251 -314 -34 -7 -191 -11 -437 -11
-246 0 -403 4 -437 11 -162 35 -252 145 -252 309 0 161 86 271 247 315 42 12
130 14 462 12 406 -2 411 -3 469 -26z m1781 18 c55 -15 101 -52 128 -102 21
-40 22 -53 22 -282 l0 -240 -155 0 -155 0 -5 172 c-4 148 -8 175 -23 190 -16
17 -54 18 -517 21 l-500 3 0 124 0 125 583 0 c390 0 595 -4 622 -11z"/>
<path d="M9370 2043 c-31 -12 -50 -37 -50 -67 1 -73 17 -76 365 -76 287 0 339
5 357 33 15 24 8 74 -13 93 -20 18 -42 19 -333 21 -171 1 -318 -1 -326 -4z"/>
<path d="M2992 3395 c-78 -17 -160 -54 -222 -100 -55 -40 -60 -42 -60 -17 0
28 -37 80 -69 97 -24 12 -68 15 -218 15 -170 0 -191 -2 -221 -20 -18 -11 -38
-31 -44 -45 -14 -32 -20 -31 -41 5 -40 66 -27 65 -594 65 -501 0 -512 0 -539
-21 -64 -48 -69 -62 -72 -230 -3 -144 -2 -156 19 -194 15 -26 37 -47 64 -60
38 -18 62 -20 303 -20 l262 0 0 -50 0 -49 -284 -3 c-269 -3 -286 -4 -312 -24
-68 -50 -69 -55 -69 -284 0 -195 1 -210 21 -236 34 -46 70 -67 124 -72 41 -4
50 -8 46 -21 -24 -78 -28 -124 -24 -253 6 -187 23 -235 117 -329 70 -69 125
-98 241 -122 76 -16 864 -16 940 0 142 30 247 99 307 200 l25 44 23 -48 c27
-58 99 -127 163 -155 72 -31 245 -39 819 -36 499 3 512 4 539 24 15 11 37 33
48 48 20 26 21 39 19 229 -1 111 -5 308 -8 438 l-6 237 65 4 c75 5 111 25 138
79 25 49 27 403 2 455 -22 46 -72 75 -144 81 l-58 6 -4 133 c-3 144 -9 162
-72 208 -25 20 -41 21 -216 21 -176 0 -190 -1 -217 -21 -40 -30 -73 -82 -73
-116 l0 -30 -50 45 c-52 47 -122 84 -211 113 -75 23 -368 29 -457 9z m407
-131 c85 -19 154 -58 206 -117 85 -94 107 -209 103 -532 l-3 -210 -160 0 -160
0 -5 270 c-6 301 -6 301 -76 335 -83 41 -215 15 -248 -49 -13 -25 -16 -73 -16
-283 0 -139 -4 -259 -8 -266 -7 -9 -46 -12 -163 -10 l-154 3 -3 210 c-6 390
23 497 157 593 105 75 337 100 530 56z m-1385 -10 c10 -25 7 -380 -4 -481 -12
-118 -40 -190 -97 -253 -51 -57 -113 -92 -206 -118 -52 -14 -112 -17 -372 -17
l-310 0 0 125 0 125 285 5 c260 5 288 7 317 25 53 31 63 66 63 214 l0 131
-325 0 -325 0 0 123 c0 68 3 127 7 130 3 4 221 7 484 7 426 0 478 -2 483 -16z
m574 -443 c2 -357 0 -456 -10 -463 -21 -13 -292 -10 -306 4 -7 7 -12 39 -12
75 l0 63 -115 0 -115 0 0 130 0 130 115 0 115 0 0 55 0 55 -115 0 -116 0 3
128 3 127 113 3 112 3 0 68 c0 37 3 71 7 75 4 3 77 5 162 4 l156 -3 3 -454z
m1570 272 l2 -183 110 0 110 0 0 -130 0 -130 -110 0 -110 0 0 -270 0 -270
-160 0 -160 0 0 585 0 586 158 -3 157 -3 3 -182z m-910 -523 l2 -235 -20 32
c-10 18 -29 38 -40 45 -19 12 -20 23 -20 206 l0 193 38 -3 37 -3 3 -235z
m-141 -258 c8 -5 13 -60 15 -174 3 -145 5 -170 21 -185 16 -17 54 -18 527 -21
l510 -3 0 -124 c0 -123 0 -125 -24 -131 -13 -3 -281 -4 -597 -2 l-574 3 -53
24 c-114 52 -132 105 -132 397 0 161 3 214 13 217 20 8 281 7 294 -1z m186
-81 c41 -44 75 -51 252 -51 l165 0 0 -60 0 -60 -227 2 -228 3 -2 130 c-1 102
1 122 9 95 5 -19 19 -46 31 -59z m-938 47 c165 -48 237 -142 237 -308 0 -169
-76 -264 -240 -299 -72 -15 -852 -15 -924 0 -161 34 -240 135 -240 302 1 120
42 202 131 258 95 61 170 68 626 64 278 -2 371 -6 410 -17z"/>
<path d="M1542 2018 c-50 -24 -40 -92 16 -108 54 -15 627 -12 672 3 32 11 35
15 35 52 0 64 -4 65 -375 64 -214 0 -333 -4 -348 -11z"/>
</g>
</svg>
